<svg xmlns="http://www.w3.org/2000/svg" xmlns:xlink="http://www.w3.org/1999/xlink" xml:space="preserve" version="1.1" style="shape-rendering:geometricPrecision;text-rendering:geometricPrecision;image-rendering:optimizeQuality;" viewBox="0 0 847 1058.75" x="0px" y="0px" fill-rule="evenodd" clip-rule="evenodd"><defs><style type="text/css">
   
    .fil0 {fill: rgb(160, 160, 160)}
    
   
  </style></defs><g><path class="fil0" d="M423 20c223,0 403,181 403,403 0,223 -180,403 -403,403 -222,0 -403,-180 -403,-403 0,-222 181,-403 403,-403zm0 461l-148 149c-38,38 -96,-20 -58,-58l148 -149 -148 -148c-38,-38 20,-96 58,-58l148 148 149 -148c38,-38 96,20 58,58l-149 148 149 149c38,38 -20,96 -58,58l-149 -149z"/></g></svg>