<svg xmlns:dc="http://purl.org/dc/elements/1.1/" xmlns:cc="http://creativecommons.org/ns#" xmlns:rdf="http://www.w3.org/1999/02/22-rdf-syntax-ns#" xmlns:svg="http://www.w3.org/2000/svg" xmlns="http://www.w3.org/2000/svg" xmlns:sodipodi="http://sodipodi.sourceforge.net/DTD/sodipodi-0.dtd" xmlns:inkscape="http://www.inkscape.org/namespaces/inkscape" viewBox="0 0 10.583333 10.583333" version="1.1" x="0px" y="0px"><svg:g><svg:path style="color:#8d8d8d;font-style:normal;font-variant:normal;font-weight:normal;font-stretch:normal;font-size:medium;line-height:normal;font-family:sans-serif;font-variant-ligatures:normal;font-variant-position:normal;font-variant-caps:normal;font-variant-numeric:normal;font-variant-alternates:normal;font-feature-settings:normal;text-indent:0;text-align:start;text-decoration:none;text-decoration-line:none;text-decoration-style:solid;text-decoration-color:#8d8d8d;letter-spacing:normal;word-spacing:normal;text-transform:none;writing-mode:lr-tb;direction:ltr;text-orientation:mixed;dominant-baseline:auto;baseline-shift:baseline;text-anchor:start;white-space:normal;shape-padding:0;clip-rule:nonzero;display:inline;overflow:visible;visibility:visible;opacity:1;isolation:auto;mix-blend-mode:normal;color-interpolation:sRGB;color-interpolation-filters:linearRGB;solid-color:#8d8d8d;solid-opacity:1;vector-effect:none;fill:#8d8d8d;fill-opacity:1;fill-rule:nonzero;stroke:none;stroke-width:0.52916664;stroke-linecap:round;stroke-linejoin:round;stroke-miterlimit:4;stroke-dasharray:none;stroke-dashoffset:0;stroke-opacity:1;color-rendering:auto;image-rendering:auto;shape-rendering:auto;text-rendering:auto;enable-background:accumulate" d="M 2.1399811,0.79385897 A 0.26495282,0.26495282 0 0 0 2.1653031,1.323025 h 0.4103108 v 1.517738 c 0,0.8383 0.6969477,1.486813 1.3358344,1.948717 C 4.2013231,4.999054 4.4832102,5.165754 4.7124346,5.291775 4.4832102,5.417796 4.2013231,5.583979 3.9114483,5.793552 3.2725616,6.255459 2.5756139,6.904488 2.5756139,7.742788 V 9.260525 H 2.1653028 a 0.26460987,0.26460987 0 0 0 -0.025322,0 0.26495282,0.26495282 0 0 0 0.025322,0.529167 h 0.6759268 4.9025439 0.6754098 a 0.2646485,0.2646485 0 1 0 0,-0.529167 H 8.0093913 V 7.742788 c 0,-0.8383 -0.6969495,-1.487329 -1.3358362,-1.949236 C 6.3836802,5.583979 6.1017958,5.417796 5.8725687,5.291775 6.1017958,5.165754 6.3836802,4.999054 6.6735551,4.78948 7.3124418,4.327576 8.0093913,3.679063 8.0093913,2.840763 V 1.323025 h 0.409792 a 0.2646485,0.2646485 0 0 0 0,-0.52916603 H 2.1653028 a 0.26460987,0.26460987 0 0 0 -0.025322,0 z M 3.104781,1.323025 h 4.3754437 v 1.517738 c 0,0.519927 -0.5303679,1.094983 -1.1172455,1.519285 C 5.8295475,4.74571 5.3856931,4.943827 5.2922449,4.986883 5.198794,4.943825 4.7554556,4.74571 4.2220238,4.360048 3.6351462,3.935746 3.104781,3.36069 3.104781,2.840763 Z M 5.2922449,5.596149 C 5.3856929,5.639209 5.8295475,5.837838 6.3629792,6.2235 6.9498568,6.647802 7.4797061,7.222858 7.4797061,7.742788 V 9.260525 H 3.104781 V 7.742788 c 0,-0.51993 0.5303652,-1.094986 1.1172428,-1.519288 C 4.7554556,5.837838 5.198794,5.639208 5.2922449,5.596149 Z"/></svg:g></svg>